<?xml version="1.0" encoding="UTF-8" standalone="no"?>
<svg
   xmlns:dc="http://purl.org/dc/elements/1.1/"
   xmlns:cc="http://creativecommons.org/ns#"
   xmlns:rdf="http://www.w3.org/1999/02/22-rdf-syntax-ns#"
   xmlns:svg="http://www.w3.org/2000/svg"
   xmlns="http://www.w3.org/2000/svg"
   xmlns:sodipodi="http://sodipodi.sourceforge.net/DTD/sodipodi-0.dtd"
   xmlns:inkscape="http://www.inkscape.org/namespaces/inkscape"
   inkscape:version="1.0 (4035a4fb49, 2020-05-01)"
   sodipodi:docname="Make It Loud.svg"
   id="svg8"
   version="1.1"
   viewBox="0 0 210 297"
   height="297mm"
   width="210mm">
  <defs
     id="defs2" />
  <sodipodi:namedview
     inkscape:window-maximized="0"
     inkscape:window-y="0"
     inkscape:window-x="96"
     inkscape:window-height="1030"
     inkscape:window-width="1424"
     showgrid="false"
     inkscape:document-rotation="0"
     inkscape:current-layer="text867"
     inkscape:document-units="mm"
     inkscape:cy="576.47846"
     inkscape:cx="418.7199"
     inkscape:zoom="0.98994949"
     inkscape:pageshadow="2"
     inkscape:pageopacity="0.0"
     borderopacity="1.0"
     bordercolor="#666666"
     pagecolor="#ffffff"
     id="base" />
  <metadata
     id="metadata5">
    <rdf:RDF>
      <cc:Work
         rdf:about="">
        <dc:format>image/svg+xml</dc:format>
        <dc:type
           rdf:resource="http://purl.org/dc/dcmitype/StillImage" />
        <dc:title></dc:title>
      </cc:Work>
    </rdf:RDF>
  </metadata>
  <g
     id="layer1"
     inkscape:groupmode="layer"
     inkscape:label="Layer 1">
    <g
       style="font-style:normal;font-variant:normal;font-weight:normal;font-stretch:normal;font-size:10.5833px;line-height:1.25;font-family:'Comic Sans MS';-inkscape-font-specification:'Comic Sans MS';fill:#000000;fill-opacity:1;stroke:none;stroke-width:0.264583"
       id="text867"
       aria-label="Make It Loud !">
      <path
         id="path899"
         style="font-style:normal;font-variant:normal;font-weight:normal;font-stretch:normal;font-family:'Comic Sans MS';-inkscape-font-specification:'Comic Sans MS';stroke-width:0.264583"
         d="m 84.143855,115.6239 q -0.222612,0.16827 -0.541396,0.0465 -0.273244,-0.10439 -0.721181,-0.49132 l -0.684369,-0.59688 q -0.667588,-0.53184 -2.73585,-2.50537 l 1.054489,3.10905 0.348824,0.96711 q 0.203706,0.57802 0.267286,0.99636 0.06368,0.44418 -0.229017,0.66542 -0.243225,0.18385 -0.582815,0.026 -0.221568,-0.10459 -0.498316,-0.31646 l -0.465432,-0.36723 q -1.516333,-1.14051 -3.08953,-2.56192 l 0.409364,0.8501 1.113479,2.57862 q 0.256813,0.40832 0.650791,1.28948 0.119378,0.41503 -0.165071,0.63004 -0.202,0.15269 -0.430613,0.0988 -0.196542,-0.0458 -0.333649,-0.22716 -0.52038,-0.68845 -0.993131,-1.90522 l -0.802299,-2.00411 -0.742453,-1.4793 q -0.50726,-1.04817 -0.517151,-1.48118 -0.01583,-0.36375 0.227392,-0.54759 0.267959,-0.20255 0.630465,0.003 0.438104,0.24537 1.477412,1.2347 1.243671,1.19114 2.898832,2.42104 -0.589556,-2.04832 -1.443725,-4.10392 l -0.331269,-0.69535 q -0.200009,-0.41887 -0.248724,-0.73185 -0.06981,-0.42658 0.210514,-0.63848 0.354531,-0.26798 1.057306,0.27613 0.243574,0.18512 0.896163,0.85137 1.651679,1.6795 3.011591,2.72447 l 0.737961,0.55638 q 0.586668,0.45049 0.686381,0.5824 0.13399,0.17727 0.08831,0.39965 -0.04155,0.21927 -0.210574,0.34702 z" />
      <path
         id="path901"
         style="font-style:normal;font-variant:normal;font-weight:normal;font-stretch:normal;font-family:'Comic Sans MS';-inkscape-font-specification:'Comic Sans MS';stroke-width:0.264583"
         d="m 89.121183,112.9589 q -0.0872,0.0451 -0.421178,-0.038 -0.303907,-0.0813 -0.480881,-0.17589 -0.317075,0.46667 -0.590348,0.75938 -0.270898,0.29731 -0.49578,0.41369 -1.073925,0.5558 -1.878519,0.20414 -0.758056,-0.3292 -1.366105,-1.50409 -0.574797,-1.11064 -0.221485,-2.2943 0.3579,-1.18604 1.418058,-1.73471 0.39928,-0.20664 1.001821,-0.25664 0.757173,-0.066 0.944813,0.29655 0.06413,0.12391 0.02222,0.26779 0.04436,0.19815 0.223468,0.61168 0.183695,0.41116 0.502132,1.0377 0.289934,0.57146 0.543558,0.85914 0.150402,0.17819 0.707167,0.65811 0.07488,0.066 0.231442,0.18861 l 0.06791,0.0638 q 0.09501,0.18357 0.02826,0.3694 -0.06675,0.18583 -0.236558,0.27372 z m -2.605359,-2.69561 q -0.102133,-0.19735 -0.197946,-0.4387 -0.0936,-0.24831 -0.1785,-0.53603 -0.214938,6.8e-4 -0.360229,0.0235 -0.140702,0.0204 -0.214133,0.0584 -0.711361,0.36815 -0.928316,1.21941 -0.214742,0.84429 0.177165,1.60154 0.389532,0.75267 0.850484,0.99124 0.460953,0.23857 0.993326,-0.037 0.440585,-0.22802 0.664945,-0.54779 0.12009,-0.1727 0.283017,-0.58869 -0.776288,-1.14019 -1.089813,-1.74599 z" />
      <path
         id="path903"
         style="font-style:normal;font-variant:normal;font-weight:normal;font-stretch:normal;font-family:'Comic Sans MS';-inkscape-font-specification:'Comic Sans MS';stroke-width:0.264583"
         d="m 94.347743,110.82179 q -0.267094,0.0972 -0.515248,-0.1315 -0.430958,-0.39861 -1.184665,-0.88328 l -1.285323,-0.85766 q -0.200397,0.32585 -0.646228,0.94446 0.220413,0.77215 0.480112,1.48602 0.0795,0.21853 -0.007,0.40397 -0.08165,0.18368 -0.290471,0.25965 -0.490483,0.17843 -0.730748,-0.48202 -0.146633,-0.40307 -0.384713,-1.22379 -0.23499,-0.82734 -0.381623,-1.23041 -0.268532,-0.73815 -0.593605,-1.69219 -0.321984,-0.96066 -0.586982,-1.6891 -0.0795,-0.21853 -0.211547,-0.50593 -0.127192,-0.28916 -0.206691,-0.5077 -0.0795,-0.21853 0.0022,-0.4022 0.08651,-0.18545 0.295328,-0.26141 0.208819,-0.076 0.389405,0.0123 0.185442,0.0865 0.264941,0.30504 0.08127,0.22339 0.216847,0.5205 0.133814,0.29225 0.215081,0.51564 l 0.53487,1.57608 q 0.283117,0.85383 0.600228,1.69528 0.476719,-0.74531 0.869543,-1.57009 l 0.667346,-1.49104 q 0.10019,-0.22341 0.284728,-0.29054 0.189395,-0.0689 0.394705,0.0269 0.210167,0.094 0.2826,0.29311 0.06007,0.16512 -0.02247,0.37661 -0.342921,0.9166 -0.92555,2.03588 l 1.583363,1.05718 q 1.11224,0.74466 1.223539,1.0506 0.07067,0.19425 -0.0335,0.39162 -0.09931,0.1956 -0.298418,0.26803 z" />
      <path
         id="path905"
         style="font-style:normal;font-variant:normal;font-weight:normal;font-stretch:normal;font-family:'Comic Sans MS';-inkscape-font-specification:'Comic Sans MS';stroke-width:0.264583"
         d="m 98.052941,109.93828 q -1.140692,0.25055 -1.972589,-0.16459 -0.910815,-0.46129 -1.160255,-1.59694 -0.28824,-1.3123 0.152604,-2.34031 0.478626,-1.12097 1.63446,-1.37484 0.837854,-0.18403 1.429904,-0.0178 0.727597,0.20525 0.88613,0.92701 0.110862,0.50473 -0.368578,1.04389 -0.212455,0.23713 -0.945864,0.80032 l -1.727412,1.33706 q 0.374664,0.35684 0.840153,0.47681 0.470536,0.11887 1.030787,-0.004 0.348265,-0.0765 0.78884,-0.31083 0.558999,-0.29737 0.67185,-0.60257 0.111743,-0.31025 0.308588,-0.35349 0.176656,-0.0388 0.342866,0.0675 0.170145,0.10019 0.208955,0.27685 0.12305,0.56025 -0.691727,1.16248 -0.696852,0.51283 -1.428712,0.67358 z m -1.146228,-4.56816 q -0.615772,0.13525 -0.919285,0.70454 -0.304622,0.56425 -0.295877,1.56758 l 1.387665,-1.07725 q 0.816005,-0.64483 1.132588,-1.05827 -0.522759,-0.30844 -1.305091,-0.1366 z" />
      <path
         id="path907"
         style="font-style:normal;font-variant:normal;font-weight:normal;font-stretch:normal;font-family:'Comic Sans MS';-inkscape-font-specification:'Comic Sans MS';stroke-width:0.264583"
         d="m 108.64528,102.27853 q -0.3307,0.004 -0.8327,-0.0577 l -0.83317,-0.099 q -0.10172,1.50503 -0.0861,2.87437 0.004,0.36171 0.0309,0.8937 0.0267,0.532 0.0309,0.89371 0.006,0.48572 -0.0261,0.88402 l 1.62746,-0.0392 q 0.21703,-0.002 0.36348,0.1509 0.15155,0.14815 0.15408,0.37034 0.003,0.22736 -0.14549,0.38409 -0.14298,0.1515 -0.36001,0.15397 -0.28937,0.003 -0.86793,0.0254 -0.57862,0.0169 -0.86798,0.0202 -0.34104,0.004 -1.02207,0.10467 -0.6758,0.10588 -1.022,0.10982 -0.21703,0.002 -0.36865,-0.15084 -0.14639,-0.1482 -0.14892,-0.37039 -0.003,-0.2222 0.14039,-0.37886 0.14809,-0.15673 0.36511,-0.1592 0.33588,-0.004 1.10974,-0.12116 0.0469,-0.41914 0.0408,-0.95654 -0.004,-0.35654 -0.0461,-0.86769 -0.0369,-0.51638 -0.0409,-0.86776 -0.0136,-1.19364 0.11073,-2.98317 l -0.67151,0.0283 -0.67157,0.0232 q -0.2222,0.003 -0.37375,-0.14562 -0.15156,-0.14814 -0.15421,-0.38067 -0.005,-0.48056 0.47973,-0.53259 0.41808,-0.0461 1.56521,-0.0592 1.0283,-0.0117 2.58101,0.19283 0.46066,0.0619 0.46619,0.54766 0.003,0.24287 -0.17128,0.38955 -0.15366,0.12062 -0.35519,0.12291 z" />
      <path
         id="path909"
         style="font-style:normal;font-variant:normal;font-weight:normal;font-stretch:normal;font-family:'Comic Sans MS';-inkscape-font-specification:'Comic Sans MS';stroke-width:0.264583"
         d="m 114.20531,104.8209 q -0.10785,-0.0121 -0.25564,-0.039 -0.14264,-0.0263 -0.25049,-0.0384 -0.11812,-0.0132 -0.70706,-0.001 l -0.24186,3.04606 -0.0201,0.22654 -0.0242,0.26249 q -0.10523,1.127 -0.66501,1.06439 -0.20543,-0.023 -0.34456,-0.17372 -0.134,-0.15019 -0.11161,-0.35048 0.0218,-0.19515 0.0809,-0.58373 0.059,-0.38859 0.0809,-0.58374 l 0.2327,-3.01068 q -0.37318,-0.0573 -1.13035,-0.21481 -0.45017,-0.11274 -0.40021,-0.55954 0.0253,-0.22597 0.18059,-0.35939 0.15532,-0.13343 0.37101,-0.10931 l 1.06872,0.20792 q 0.0293,-0.26192 0.0524,-0.70132 0.0289,-0.44396 0.0507,-0.63911 0.0241,-0.2157 0.18857,-0.3377 0.16501,-0.12714 0.38071,-0.10302 0.4622,0.0517 0.45481,0.81524 -0.006,0.19174 -0.0357,0.45879 l -0.0436,0.29672 -0.0407,0.31783 q 0.64601,-0.0109 0.73845,-6.1e-4 0.5341,0.0597 0.6927,0.12946 0.30178,0.13775 0.25928,0.51779 -0.0253,0.22596 -0.18572,0.35881 -0.15474,0.12829 -0.37557,0.1036 z" />
      <path
         id="path911"
         style="font-style:normal;font-variant:normal;font-weight:normal;font-stretch:normal;font-family:'Comic Sans MS';-inkscape-font-specification:'Comic Sans MS';stroke-width:0.264583"
         d="m 122.74413,111.30517 q -0.63944,0.0843 -1.89705,-0.0872 -1.15934,-0.15663 -1.85381,-0.37712 -0.49746,-0.15793 -0.6657,-0.37943 -0.22985,-0.30069 -0.0547,-0.85232 l 0.61611,-1.59902 q 0.84426,-2.21515 1.71684,-4.96349 0.0672,-0.21179 0.25206,-0.31577 0.18975,-0.10241 0.39661,-0.0367 0.21179,0.0672 0.30279,0.25878 0.0959,0.19311 0.0287,0.4049 -0.88352,2.78282 -1.74052,5.02104 l -0.30172,0.72832 q -0.1692,0.3963 -0.25943,0.71465 1.28083,0.42291 3.44307,0.42626 0.0915,0.002 0.16543,0.0254 0.21179,0.0672 0.30146,0.28005 0.0747,0.19178 0.0121,0.38879 -0.10008,0.31523 -0.46222,0.36291 z" />
      <path
         id="path913"
         style="font-style:normal;font-variant:normal;font-weight:normal;font-stretch:normal;font-family:'Comic Sans MS';-inkscape-font-specification:'Comic Sans MS';stroke-width:0.264583"
         d="m 125.46715,113.0829 q -0.78599,-0.36868 -1.07997,-1.21435 -0.32876,-0.94189 0.14981,-2.04735 0.46789,-1.07051 1.40676,-1.61187 1.10048,-0.64251 2.27011,-0.0939 0.9357,0.43891 1.016,1.52111 0.0589,0.87237 -0.41164,1.83892 -0.50122,1.03204 -1.37443,1.51859 -0.98947,0.55188 -1.97664,0.0888 z m 2.24041,-4.04624 q -0.68555,-0.32728 -1.37862,0.15245 -0.55208,0.38603 -0.87028,1.06441 -0.3182,0.67839 -0.12636,1.23071 0.16176,0.4583 0.57814,0.65361 0.48657,0.22823 1.00424,0.0373 0.58201,-0.20646 0.91922,-0.86452 0.91477,-1.77986 -0.12634,-2.27391 z" />
      <path
         id="path915"
         style="font-style:normal;font-variant:normal;font-weight:normal;font-stretch:normal;font-family:'Comic Sans MS';-inkscape-font-specification:'Comic Sans MS';stroke-width:0.264583"
         d="m 134.01549,114.14669 q -0.19963,0.31397 -0.59453,0.94471 -0.3949,0.63073 -0.59453,0.94471 -0.061,0.0959 -0.17269,0.30049 -0.10732,0.20733 -0.16832,0.30327 -0.11923,0.18751 -0.32055,0.22485 -0.2041,0.0417 -0.38725,-0.0748 -0.33579,-0.21349 -0.16396,-0.68599 -0.72533,-0.0631 -1.43614,-0.51507 -0.57127,-0.36322 -0.78549,-0.85459 -0.23683,-0.5425 0.0257,-1.12879 0.56468,-1.26375 1.13862,-2.16644 0.37985,-0.59743 0.99589,-1.2774 0.30227,-0.34057 0.6555,-0.11599 0.18751,0.11922 0.23634,0.32173 0.0516,0.19815 -0.0676,0.38567 -0.12754,0.2006 -0.47299,0.59945 -0.34109,0.40163 -0.48804,0.63275 -0.46303,0.72826 -0.74501,1.2777 -0.28197,0.54943 -0.38566,0.92441 0.094,0.16999 0.20582,0.30233 0.11459,0.12797 0.24977,0.21392 0.58435,0.37153 1.35334,0.59714 l 0.55849,-0.88802 0.52917,-0.85154 q 0.59889,-0.94194 1.1226,-1.58263 0.30305,-0.3707 0.67808,-0.13225 0.18752,0.11922 0.23635,0.32173 0.0488,0.20251 -0.0763,0.38012 z" />
      <path
         id="path917"
         style="font-style:normal;font-variant:normal;font-weight:normal;font-stretch:normal;font-family:'Comic Sans MS';-inkscape-font-specification:'Comic Sans MS';stroke-width:0.264583"
         d="m 140.02167,117.02902 q -0.53743,0.54043 -1.02747,1.12088 -1.11009,1.31488 -1.5544,2.08948 -0.0388,0.0619 -0.0688,0.0975 -0.13334,0.15794 -0.33058,0.16726 -0.19723,0.009 -0.34333,-0.11402 -0.24481,-0.20668 -0.0593,-0.65873 -0.46098,-0.0307 -0.85897,-0.18416 -0.39405,-0.15007 -0.72573,-0.4301 -0.81736,-0.69006 -0.89433,-1.68833 -0.0828,-1.02346 0.65396,-1.8961 0.89008,-1.05427 1.98354,-1.21996 1.09742,-0.16235 1.9898,0.59105 0.45803,0.3867 0.58679,0.73887 l 0.14114,0.58581 q 1.45874,-1.61569 2.02047,-2.12884 0.34802,-0.30809 0.65601,-0.0481 0.35932,0.30336 0.036,0.68638 -0.46337,0.54885 -2.20478,2.29109 z m -1.83985,-1.37747 q -0.66336,-0.56004 -1.32841,-0.44521 -0.66171,0.11089 -1.32843,0.90061 -0.43004,0.50936 -0.38074,1.17994 0.0532,0.67391 0.53892,1.08395 0.33168,0.28002 0.66404,0.35097 0.19426,0.0423 0.71499,0.0423 0.10256,-0.001 0.21785,-0.0257 l 0.56487,-0.6931 0.39064,-0.45471 0.40127,-0.45926 q 0.11997,-0.44652 0.005,-0.81448 -0.11208,-0.37191 -0.45956,-0.66527 z" />
      <path
         id="path919"
         style="font-style:normal;font-variant:normal;font-weight:normal;font-stretch:normal;font-family:'Comic Sans MS';-inkscape-font-specification:'Comic Sans MS';stroke-width:0.264583"
         d="m 146.87042,119.62176 -4.40325,3.70026 q -0.3521,0.29588 -0.64799,-0.0562 -0.29589,-0.3521 0.0562,-0.64799 0.16221,-0.13631 0.47269,-0.41747 0.31776,-0.28052 0.47601,-0.41351 0.57364,-0.48206 1.72364,-1.43495 1.15727,-0.95226 1.73092,-1.43433 0.3521,-0.29588 0.64799,0.0562 0.29589,0.3521 -0.0562,0.64799 z m -5.90328,4.96755 q -0.14243,0.11969 -0.3417,0.0914 -0.19991,-0.021 -0.31959,-0.16344 -0.13298,-0.15825 -0.0602,-0.48937 0.0642,-0.3172 0.2264,-0.45351 0.14242,-0.11968 0.33837,-0.0953 0.19927,0.0283 0.32228,0.17467 0.12966,0.1543 0.0603,0.48938 -0.0675,0.31324 -0.22577,0.44622 z" />
    </g>
  </g>
</svg>
